{
	"asset":{
		"generator":"Khronos glTF Blender I/O v3.5.30",
		"version":"2.0"
	},
	"extensionsUsed":[
		"KHR_materials_specular"
	],
	"scene":0,
	"scenes":[
		{
			"name":"Scene",
			"nodes":[
				6
			]
		}
	],
	"nodes":[
		{
			"mesh":0,
			"name":"Object_6",
			"scale":[
				2.4305331707000732,
				2.4305334091186523,
				2.430532932281494
			]
		},
		{
			"children":[
				0
			],
			"name":"Clouds_1"
		},
		{
			"mesh":1,
			"name":"Object_4",
			"scale":[
				2.4305331707000732,
				2.4305334091186523,
				2.4305334091186523
			]
		},
		{
			"children":[
				2
			],
			"name":"Earth_0"
		},
		{
			"children":[
				1,
				3
			],
			"name":"GLTF_SceneRootNode",
			"rotation":[
				0.70710688829422,
				0,
				0,
				0.7071066498756409
			]
		},
		{
			"children":[
				4
			],
			"name":"root"
		},
		{
			"children":[
				5
			],
			"name":"Sketchfab_model",
			"rotation":[
				-0.70710688829422,
				0,
				0,
				0.7071066498756409
			],
			"scale":[
				574.1785278320312,
				574.1785888671875,
				574.1785888671875
			]
		}
	],
	"animations":[
		{
			"channels":[
				{
					"sampler":0,
					"target":{
						"node":1,
						"path":"rotation"
					}
				}
			],
			"name":"CloudsAction",
			"samplers":[
				{
					"input":9,
					"interpolation":"LINEAR",
					"output":10
				}
			]
		}
	],
	"materials":[
		{
			"alphaMode":"BLEND",
			"doubleSided":true,
			"name":"clouds",
			"pbrMetallicRoughness":{
				"baseColorFactor":[
					0.800000011920929,
					0.800000011920929,
					0.800000011920929,
					1
				],
				"baseColorTexture":{
					"index":0
				},
				"metallicFactor":0,
				"roughnessFactor":0.5
			}
		},
		{
			"doubleSided":true,
			"extensions":{
				"KHR_materials_specular":{
					"specularColorTexture":{
						"index":1
					}
				}
			},
			"name":"earth",
			"pbrMetallicRoughness":{
				"baseColorTexture":{
					"index":2
				},
				"metallicFactor":0,
				"metallicRoughnessTexture":{
					"index":3
				}
			}
		}
	],
	"meshes":[
		{
			"name":"Object_1",
			"primitives":[
				{
					"attributes":{
						"POSITION":0,
						"TEXCOORD_0":1,
						"NORMAL":2
					},
					"indices":3,
					"material":0
				}
			]
		},
		{
			"name":"Object_0",
			"primitives":[
				{
					"attributes":{
						"POSITION":4,
						"TEXCOORD_0":5,
						"TEXCOORD_1":6,
						"TEXCOORD_2":7,
						"NORMAL":8
					},
					"indices":3,
					"material":1
				}
			]
		}
	],
	"textures":[
		{
			"sampler":0,
			"source":0
		},
		{
			"sampler":0,
			"source":1
		},
		{
			"sampler":0,
			"source":2
		},
		{
			"sampler":0,
			"source":3
		}
	],
	"images":[
		{
			"mimeType":"image/png",
			"name":"clouds_baseColor",
			"uri":"clouds_baseColor.png"
		},
		{
			"mimeType":"image/png",
			"name":"Image",
			"uri":"Image.png"
		},
		{
			"mimeType":"image/png",
			"name":"earth_baseColor",
			"uri":"earth_baseColor.png"
		},
		{
			"mimeType":"image/png",
			"name":"earth_metallicRoughness",
			"uri":"earth_metallicRoughness.png"
		}
	],
	"accessors":[
		{
			"bufferView":0,
			"componentType":5126,
			"count":1087,
			"max":[
				1.0055241584777832,
				1.0055246353149414,
				1.0055238008499146
			],
			"min":[
				-1.0055235624313354,
				-1.0055246353149414,
				-1.0055233240127563
			],
			"type":"VEC3"
		},
		{
			"bufferView":1,
			"componentType":5126,
			"count":1087,
			"type":"VEC2"
		},
		{
			"bufferView":2,
			"componentType":5126,
			"count":1087,
			"type":"VEC3"
		},
		{
			"bufferView":3,
			"componentType":5123,
			"count":5952,
			"type":"SCALAR"
		},
		{
			"bufferView":4,
			"componentType":5126,
			"count":1087,
			"max":[
				0.9999997019767761,
				1,
				0.9999993443489075
			],
			"min":[
				-0.9999990463256836,
				-1,
				-0.9999988079071045
			],
			"type":"VEC3"
		},
		{
			"bufferView":5,
			"componentType":5126,
			"count":1087,
			"type":"VEC2"
		},
		{
			"bufferView":6,
			"componentType":5126,
			"count":1087,
			"type":"VEC2"
		},
		{
			"bufferView":7,
			"componentType":5126,
			"count":1087,
			"type":"VEC2"
		},
		{
			"bufferView":8,
			"componentType":5126,
			"count":1087,
			"type":"VEC3"
		},
		{
			"bufferView":9,
			"componentType":5126,
			"count":1440,
			"max":[
				60
			],
			"min":[
				0.041666666666666664
			],
			"type":"SCALAR"
		},
		{
			"bufferView":10,
			"componentType":5126,
			"count":1440,
			"type":"VEC4"
		}
	],
	"bufferViews":[
		{
			"buffer":0,
			"byteLength":13044,
			"byteOffset":0,
			"target":34962
		},
		{
			"buffer":0,
			"byteLength":8696,
			"byteOffset":13044,
			"target":34962
		},
		{
			"buffer":0,
			"byteLength":13044,
			"byteOffset":21740,
			"target":34962
		},
		{
			"buffer":0,
			"byteLength":11904,
			"byteOffset":34784,
			"target":34963
		},
		{
			"buffer":0,
			"byteLength":13044,
			"byteOffset":46688,
			"target":34962
		},
		{
			"buffer":0,
			"byteLength":8696,
			"byteOffset":59732,
			"target":34962
		},
		{
			"buffer":0,
			"byteLength":8696,
			"byteOffset":68428,
			"target":34962
		},
		{
			"buffer":0,
			"byteLength":8696,
			"byteOffset":77124,
			"target":34962
		},
		{
			"buffer":0,
			"byteLength":13044,
			"byteOffset":85820,
			"target":34962
		},
		{
			"buffer":0,
			"byteLength":5760,
			"byteOffset":98864
		},
		{
			"buffer":0,
			"byteLength":23040,
			"byteOffset":104624
		}
	],
	"samplers":[
		{
			"magFilter":9729,
			"minFilter":9987
		}
	],
	"buffers":[
		{
			"byteLength":127664,
			"uri":"scene.bin"
		}
	]
}
